<mxfile host="app.diagrams.net" modified="2022-07-25T13:23:09.447Z" agent="5.0 (Macintosh; Intel Mac OS X 10_15_7) AppleWebKit/537.36 (KHTML, like Gecko) Chrome/103.0.0.0 Safari/537.36" etag="dN9r9DxOzdhceInn6-57" version="20.1.1" type="github">
  <diagram id="HZ95XB72LbMbbIZSBHjl" name="Page-1">
    <mxGraphModel dx="1183" dy="614" grid="1" gridSize="10" guides="1" tooltips="1" connect="1" arrows="1" fold="1" page="1" pageScale="1" pageWidth="827" pageHeight="1169" math="0" shadow="0">
      <root>
        <mxCell id="0" />
        <mxCell id="1" parent="0" />
        <mxCell id="t_XmNheDpT8PTCENix25-28" style="edgeStyle=none;shape=connector;rounded=0;orthogonalLoop=1;jettySize=auto;html=1;entryX=0;entryY=0;entryDx=0;entryDy=0;labelBackgroundColor=default;fontFamily=Helvetica;fontSize=10;fontColor=default;endArrow=none;strokeColor=default;" edge="1" parent="1" source="t_XmNheDpT8PTCENix25-1" target="t_XmNheDpT8PTCENix25-27">
          <mxGeometry relative="1" as="geometry" />
        </mxCell>
        <mxCell id="t_XmNheDpT8PTCENix25-31" style="edgeStyle=none;shape=connector;rounded=0;orthogonalLoop=1;jettySize=auto;html=1;labelBackgroundColor=default;fontFamily=Helvetica;fontSize=10;fontColor=default;endArrow=none;strokeColor=default;" edge="1" parent="1" source="t_XmNheDpT8PTCENix25-1" target="t_XmNheDpT8PTCENix25-30">
          <mxGeometry relative="1" as="geometry" />
        </mxCell>
        <mxCell id="t_XmNheDpT8PTCENix25-1" value="Người thuê (NT)" style="rounded=0;whiteSpace=wrap;html=1;fillColor=#f8cecc;strokeColor=#b85450;" vertex="1" parent="1">
          <mxGeometry x="210" y="130" width="110" height="40" as="geometry" />
        </mxCell>
        <mxCell id="t_XmNheDpT8PTCENix25-11" style="edgeStyle=none;shape=connector;rounded=0;orthogonalLoop=1;jettySize=auto;html=1;labelBackgroundColor=default;fontFamily=Helvetica;fontSize=11;fontColor=default;endArrow=none;strokeColor=default;" edge="1" parent="1" source="t_XmNheDpT8PTCENix25-2" target="t_XmNheDpT8PTCENix25-7">
          <mxGeometry relative="1" as="geometry" />
        </mxCell>
        <mxCell id="t_XmNheDpT8PTCENix25-14" style="edgeStyle=none;shape=connector;rounded=0;orthogonalLoop=1;jettySize=auto;html=1;labelBackgroundColor=default;fontFamily=Helvetica;fontSize=11;fontColor=default;endArrow=none;strokeColor=default;" edge="1" parent="1" source="t_XmNheDpT8PTCENix25-2" target="t_XmNheDpT8PTCENix25-13">
          <mxGeometry relative="1" as="geometry" />
        </mxCell>
        <mxCell id="t_XmNheDpT8PTCENix25-18" style="edgeStyle=none;shape=connector;rounded=0;orthogonalLoop=1;jettySize=auto;html=1;labelBackgroundColor=default;fontFamily=Helvetica;fontSize=9;fontColor=default;endArrow=none;strokeColor=default;" edge="1" parent="1" source="t_XmNheDpT8PTCENix25-2" target="t_XmNheDpT8PTCENix25-17">
          <mxGeometry relative="1" as="geometry" />
        </mxCell>
        <mxCell id="t_XmNheDpT8PTCENix25-83" style="edgeStyle=none;shape=connector;rounded=0;orthogonalLoop=1;jettySize=auto;html=1;labelBackgroundColor=default;fontFamily=Helvetica;fontSize=10;fontColor=default;endArrow=none;strokeColor=default;" edge="1" parent="1" source="t_XmNheDpT8PTCENix25-2" target="t_XmNheDpT8PTCENix25-77">
          <mxGeometry relative="1" as="geometry" />
        </mxCell>
        <mxCell id="t_XmNheDpT8PTCENix25-84" style="edgeStyle=none;shape=connector;rounded=0;orthogonalLoop=1;jettySize=auto;html=1;entryX=0.5;entryY=0;entryDx=0;entryDy=0;labelBackgroundColor=default;fontFamily=Helvetica;fontSize=10;fontColor=default;endArrow=none;strokeColor=default;" edge="1" parent="1" source="t_XmNheDpT8PTCENix25-2" target="t_XmNheDpT8PTCENix25-78">
          <mxGeometry relative="1" as="geometry" />
        </mxCell>
        <mxCell id="t_XmNheDpT8PTCENix25-2" value="Nhà" style="rounded=0;whiteSpace=wrap;html=1;fillColor=#f8cecc;strokeColor=#b85450;" vertex="1" parent="1">
          <mxGeometry x="290" y="350" width="110" height="40" as="geometry" />
        </mxCell>
        <mxCell id="t_XmNheDpT8PTCENix25-73" style="edgeStyle=none;shape=connector;rounded=0;orthogonalLoop=1;jettySize=auto;html=1;labelBackgroundColor=default;fontFamily=Helvetica;fontSize=10;fontColor=default;endArrow=none;strokeColor=default;" edge="1" parent="1" source="t_XmNheDpT8PTCENix25-3" target="t_XmNheDpT8PTCENix25-69">
          <mxGeometry relative="1" as="geometry" />
        </mxCell>
        <mxCell id="t_XmNheDpT8PTCENix25-74" style="edgeStyle=none;shape=connector;rounded=0;orthogonalLoop=1;jettySize=auto;html=1;entryX=0.5;entryY=0;entryDx=0;entryDy=0;labelBackgroundColor=default;fontFamily=Helvetica;fontSize=10;fontColor=default;endArrow=none;strokeColor=default;" edge="1" parent="1" source="t_XmNheDpT8PTCENix25-3" target="t_XmNheDpT8PTCENix25-72">
          <mxGeometry relative="1" as="geometry" />
        </mxCell>
        <mxCell id="t_XmNheDpT8PTCENix25-3" value="Chủ nhà" style="rounded=0;whiteSpace=wrap;html=1;fillColor=#f8cecc;strokeColor=#b85450;" vertex="1" parent="1">
          <mxGeometry x="50" y="490" width="110" height="40" as="geometry" />
        </mxCell>
        <mxCell id="t_XmNheDpT8PTCENix25-21" style="edgeStyle=none;shape=connector;rounded=0;orthogonalLoop=1;jettySize=auto;html=1;entryX=0;entryY=0;entryDx=0;entryDy=0;labelBackgroundColor=default;fontFamily=Helvetica;fontSize=10;fontColor=default;endArrow=none;strokeColor=default;" edge="1" parent="1" source="t_XmNheDpT8PTCENix25-4" target="t_XmNheDpT8PTCENix25-20">
          <mxGeometry relative="1" as="geometry" />
        </mxCell>
        <mxCell id="t_XmNheDpT8PTCENix25-24" style="edgeStyle=none;shape=connector;rounded=0;orthogonalLoop=1;jettySize=auto;html=1;labelBackgroundColor=default;fontFamily=Helvetica;fontSize=10;fontColor=default;endArrow=none;strokeColor=default;" edge="1" parent="1" source="t_XmNheDpT8PTCENix25-4" target="t_XmNheDpT8PTCENix25-23">
          <mxGeometry relative="1" as="geometry" />
        </mxCell>
        <mxCell id="t_XmNheDpT8PTCENix25-4" value="Loại nhà (LN)" style="rounded=0;whiteSpace=wrap;html=1;fillColor=#f8cecc;strokeColor=#b85450;" vertex="1" parent="1">
          <mxGeometry x="40" y="240" width="110" height="40" as="geometry" />
        </mxCell>
        <mxCell id="t_XmNheDpT8PTCENix25-5" value="Nhân viên (NV)" style="rounded=0;whiteSpace=wrap;html=1;fillColor=#f8cecc;strokeColor=#b85450;" vertex="1" parent="1">
          <mxGeometry x="605" y="430" width="110" height="40" as="geometry" />
        </mxCell>
        <mxCell id="t_XmNheDpT8PTCENix25-35" style="edgeStyle=none;shape=connector;rounded=0;orthogonalLoop=1;jettySize=auto;html=1;labelBackgroundColor=default;fontFamily=Helvetica;fontSize=10;fontColor=default;endArrow=none;strokeColor=default;" edge="1" parent="1" source="t_XmNheDpT8PTCENix25-6" target="t_XmNheDpT8PTCENix25-33">
          <mxGeometry relative="1" as="geometry" />
        </mxCell>
        <mxCell id="t_XmNheDpT8PTCENix25-66" style="edgeStyle=none;shape=connector;rounded=0;orthogonalLoop=1;jettySize=auto;html=1;entryX=0.5;entryY=0;entryDx=0;entryDy=0;labelBackgroundColor=default;fontFamily=Helvetica;fontSize=10;fontColor=default;endArrow=none;strokeColor=default;" edge="1" parent="1" source="t_XmNheDpT8PTCENix25-6" target="t_XmNheDpT8PTCENix25-65">
          <mxGeometry relative="1" as="geometry" />
        </mxCell>
        <mxCell id="t_XmNheDpT8PTCENix25-6" value="Chi nhánh (CN)" style="rounded=0;whiteSpace=wrap;html=1;fillColor=#f8cecc;strokeColor=#b85450;" vertex="1" parent="1">
          <mxGeometry x="490" y="230" width="110" height="40" as="geometry" />
        </mxCell>
        <mxCell id="t_XmNheDpT8PTCENix25-68" style="edgeStyle=none;shape=connector;rounded=0;orthogonalLoop=1;jettySize=auto;html=1;labelBackgroundColor=default;fontFamily=Helvetica;fontSize=10;fontColor=default;endArrow=none;strokeColor=default;" edge="1" parent="1" source="t_XmNheDpT8PTCENix25-7" target="t_XmNheDpT8PTCENix25-3">
          <mxGeometry relative="1" as="geometry" />
        </mxCell>
        <mxCell id="t_XmNheDpT8PTCENix25-7" value="thuộc" style="rhombus;whiteSpace=wrap;html=1;fillColor=#fff2cc;strokeColor=#d6b656;" vertex="1" parent="1">
          <mxGeometry x="137" y="370" width="60" height="60" as="geometry" />
        </mxCell>
        <mxCell id="t_XmNheDpT8PTCENix25-15" style="edgeStyle=none;shape=connector;rounded=0;orthogonalLoop=1;jettySize=auto;html=1;exitX=1;exitY=1;exitDx=0;exitDy=0;entryX=0;entryY=0.5;entryDx=0;entryDy=0;labelBackgroundColor=default;fontFamily=Helvetica;fontSize=11;fontColor=default;endArrow=none;strokeColor=default;" edge="1" parent="1" source="t_XmNheDpT8PTCENix25-13" target="t_XmNheDpT8PTCENix25-5">
          <mxGeometry relative="1" as="geometry" />
        </mxCell>
        <mxCell id="t_XmNheDpT8PTCENix25-13" value="được phụ trách" style="rhombus;whiteSpace=wrap;html=1;fontSize=9;fillColor=#fff2cc;strokeColor=#d6b656;" vertex="1" parent="1">
          <mxGeometry x="490" y="360" width="60" height="60" as="geometry" />
        </mxCell>
        <mxCell id="t_XmNheDpT8PTCENix25-19" style="edgeStyle=none;shape=connector;rounded=0;orthogonalLoop=1;jettySize=auto;html=1;exitX=1;exitY=0;exitDx=0;exitDy=0;entryX=0;entryY=0.5;entryDx=0;entryDy=0;labelBackgroundColor=default;fontFamily=Helvetica;fontSize=9;fontColor=default;endArrow=none;strokeColor=default;" edge="1" parent="1" source="t_XmNheDpT8PTCENix25-17" target="t_XmNheDpT8PTCENix25-6">
          <mxGeometry relative="1" as="geometry" />
        </mxCell>
        <mxCell id="t_XmNheDpT8PTCENix25-17" value="có &lt;br style=&quot;font-size: 10px;&quot;&gt;thông tin" style="rhombus;whiteSpace=wrap;html=1;fontSize=10;fillColor=#fff2cc;strokeColor=#d6b656;" vertex="1" parent="1">
          <mxGeometry x="400" y="260" width="60" height="60" as="geometry" />
        </mxCell>
        <mxCell id="t_XmNheDpT8PTCENix25-22" style="edgeStyle=none;shape=connector;rounded=0;orthogonalLoop=1;jettySize=auto;html=1;exitX=1;exitY=1;exitDx=0;exitDy=0;entryX=0;entryY=0.5;entryDx=0;entryDy=0;labelBackgroundColor=default;fontFamily=Helvetica;fontSize=10;fontColor=default;endArrow=none;strokeColor=default;" edge="1" parent="1" source="t_XmNheDpT8PTCENix25-20" target="t_XmNheDpT8PTCENix25-2">
          <mxGeometry relative="1" as="geometry" />
        </mxCell>
        <mxCell id="t_XmNheDpT8PTCENix25-20" value="có" style="rhombus;whiteSpace=wrap;html=1;fontSize=10;fillColor=#fff2cc;strokeColor=#d6b656;" vertex="1" parent="1">
          <mxGeometry x="190" y="270" width="60" height="60" as="geometry" />
        </mxCell>
        <mxCell id="t_XmNheDpT8PTCENix25-26" style="edgeStyle=none;shape=connector;rounded=0;orthogonalLoop=1;jettySize=auto;html=1;exitX=1;exitY=0;exitDx=0;exitDy=0;entryX=0;entryY=0.5;entryDx=0;entryDy=0;labelBackgroundColor=default;fontFamily=Helvetica;fontSize=10;fontColor=default;endArrow=none;strokeColor=default;" edge="1" parent="1" source="t_XmNheDpT8PTCENix25-23" target="t_XmNheDpT8PTCENix25-1">
          <mxGeometry relative="1" as="geometry" />
        </mxCell>
        <mxCell id="t_XmNheDpT8PTCENix25-23" value="có" style="rhombus;whiteSpace=wrap;html=1;fontSize=10;fillColor=#fff2cc;strokeColor=#d6b656;" vertex="1" parent="1">
          <mxGeometry x="128.5" y="160" width="60" height="60" as="geometry" />
        </mxCell>
        <mxCell id="t_XmNheDpT8PTCENix25-29" style="edgeStyle=none;shape=connector;rounded=0;orthogonalLoop=1;jettySize=auto;html=1;exitX=1;exitY=1;exitDx=0;exitDy=0;entryX=0.5;entryY=0;entryDx=0;entryDy=0;labelBackgroundColor=default;fontFamily=Helvetica;fontSize=10;fontColor=default;endArrow=none;strokeColor=default;" edge="1" parent="1" source="t_XmNheDpT8PTCENix25-27" target="t_XmNheDpT8PTCENix25-6">
          <mxGeometry relative="1" as="geometry" />
        </mxCell>
        <mxCell id="t_XmNheDpT8PTCENix25-27" value="được&lt;br&gt;quản lý" style="rhombus;whiteSpace=wrap;html=1;fontSize=10;fillColor=#fff2cc;strokeColor=#d6b656;" vertex="1" parent="1">
          <mxGeometry x="400" y="130" width="60" height="60" as="geometry" />
        </mxCell>
        <mxCell id="t_XmNheDpT8PTCENix25-32" style="edgeStyle=none;shape=connector;rounded=0;orthogonalLoop=1;jettySize=auto;html=1;labelBackgroundColor=default;fontFamily=Helvetica;fontSize=10;fontColor=default;endArrow=none;strokeColor=default;" edge="1" parent="1" source="t_XmNheDpT8PTCENix25-30" target="t_XmNheDpT8PTCENix25-2">
          <mxGeometry relative="1" as="geometry" />
        </mxCell>
        <mxCell id="t_XmNheDpT8PTCENix25-126" style="edgeStyle=none;shape=connector;rounded=0;orthogonalLoop=1;jettySize=auto;html=1;exitX=1;exitY=0;exitDx=0;exitDy=0;labelBackgroundColor=default;fontFamily=Helvetica;fontSize=10;fontColor=default;endArrow=none;strokeColor=default;" edge="1" parent="1" source="t_XmNheDpT8PTCENix25-30" target="t_XmNheDpT8PTCENix25-125">
          <mxGeometry relative="1" as="geometry" />
        </mxCell>
        <mxCell id="t_XmNheDpT8PTCENix25-129" style="edgeStyle=none;shape=connector;rounded=0;orthogonalLoop=1;jettySize=auto;html=1;entryX=0;entryY=0.5;entryDx=0;entryDy=0;labelBackgroundColor=default;fontFamily=Helvetica;fontSize=10;fontColor=default;endArrow=none;strokeColor=default;" edge="1" parent="1" source="t_XmNheDpT8PTCENix25-30" target="t_XmNheDpT8PTCENix25-128">
          <mxGeometry relative="1" as="geometry" />
        </mxCell>
        <mxCell id="t_XmNheDpT8PTCENix25-30" value="xem" style="rhombus;whiteSpace=wrap;html=1;fontSize=10;fillColor=#fff2cc;strokeColor=#d6b656;" vertex="1" parent="1">
          <mxGeometry x="257" y="220" width="60" height="60" as="geometry" />
        </mxCell>
        <mxCell id="t_XmNheDpT8PTCENix25-33" value="&lt;u&gt;Mã CN&lt;/u&gt;" style="ellipse;whiteSpace=wrap;html=1;fontFamily=Helvetica;fontSize=10;fillColor=#d5e8d4;strokeColor=#82b366;" vertex="1" parent="1">
          <mxGeometry x="550" y="160" width="60" height="30" as="geometry" />
        </mxCell>
        <mxCell id="t_XmNheDpT8PTCENix25-36" style="edgeStyle=none;shape=connector;rounded=0;orthogonalLoop=1;jettySize=auto;html=1;entryX=0.607;entryY=-0.006;entryDx=0;entryDy=0;entryPerimeter=0;labelBackgroundColor=default;fontFamily=Helvetica;fontSize=10;fontColor=default;endArrow=none;strokeColor=default;" edge="1" parent="1" source="t_XmNheDpT8PTCENix25-34" target="t_XmNheDpT8PTCENix25-6">
          <mxGeometry relative="1" as="geometry" />
        </mxCell>
        <mxCell id="t_XmNheDpT8PTCENix25-34" value="Địa chỉ" style="ellipse;whiteSpace=wrap;html=1;fontFamily=Helvetica;fontSize=10;fillColor=#d5e8d4;strokeColor=#82b366;" vertex="1" parent="1">
          <mxGeometry x="620" y="160" width="60" height="30" as="geometry" />
        </mxCell>
        <mxCell id="t_XmNheDpT8PTCENix25-45" style="edgeStyle=none;shape=connector;rounded=0;orthogonalLoop=1;jettySize=auto;html=1;entryX=0.5;entryY=0;entryDx=0;entryDy=0;labelBackgroundColor=default;fontFamily=Helvetica;fontSize=10;fontColor=default;endArrow=none;strokeColor=default;" edge="1" parent="1" source="t_XmNheDpT8PTCENix25-37" target="t_XmNheDpT8PTCENix25-34">
          <mxGeometry relative="1" as="geometry" />
        </mxCell>
        <mxCell id="t_XmNheDpT8PTCENix25-37" value="Đường" style="ellipse;whiteSpace=wrap;html=1;fontFamily=Helvetica;fontSize=10;fillColor=#d5e8d4;strokeColor=#82b366;" vertex="1" parent="1">
          <mxGeometry x="538" y="100" width="60" height="30" as="geometry" />
        </mxCell>
        <mxCell id="t_XmNheDpT8PTCENix25-48" style="edgeStyle=none;shape=connector;rounded=0;orthogonalLoop=1;jettySize=auto;html=1;entryX=0.5;entryY=0;entryDx=0;entryDy=0;labelBackgroundColor=default;fontFamily=Helvetica;fontSize=10;fontColor=default;endArrow=none;strokeColor=default;" edge="1" parent="1" source="t_XmNheDpT8PTCENix25-38" target="t_XmNheDpT8PTCENix25-34">
          <mxGeometry relative="1" as="geometry" />
        </mxCell>
        <mxCell id="t_XmNheDpT8PTCENix25-38" value="Thành phố" style="ellipse;whiteSpace=wrap;html=1;fontFamily=Helvetica;fontSize=10;fillColor=#d5e8d4;strokeColor=#82b366;" vertex="1" parent="1">
          <mxGeometry x="760" y="100" width="60" height="30" as="geometry" />
        </mxCell>
        <mxCell id="t_XmNheDpT8PTCENix25-47" style="edgeStyle=none;shape=connector;rounded=0;orthogonalLoop=1;jettySize=auto;html=1;entryX=0.5;entryY=0;entryDx=0;entryDy=0;labelBackgroundColor=default;fontFamily=Helvetica;fontSize=10;fontColor=default;endArrow=none;strokeColor=default;" edge="1" parent="1" source="t_XmNheDpT8PTCENix25-39" target="t_XmNheDpT8PTCENix25-34">
          <mxGeometry relative="1" as="geometry" />
        </mxCell>
        <mxCell id="t_XmNheDpT8PTCENix25-39" value="Khu vực" style="ellipse;whiteSpace=wrap;html=1;fontFamily=Helvetica;fontSize=10;fillColor=#d5e8d4;strokeColor=#82b366;" vertex="1" parent="1">
          <mxGeometry x="690" y="100" width="60" height="30" as="geometry" />
        </mxCell>
        <mxCell id="t_XmNheDpT8PTCENix25-46" style="edgeStyle=none;shape=connector;rounded=0;orthogonalLoop=1;jettySize=auto;html=1;labelBackgroundColor=default;fontFamily=Helvetica;fontSize=10;fontColor=default;endArrow=none;strokeColor=default;" edge="1" parent="1" source="t_XmNheDpT8PTCENix25-40">
          <mxGeometry relative="1" as="geometry">
            <mxPoint x="650" y="160" as="targetPoint" />
          </mxGeometry>
        </mxCell>
        <mxCell id="t_XmNheDpT8PTCENix25-40" value="Quận" style="ellipse;whiteSpace=wrap;html=1;fontFamily=Helvetica;fontSize=10;fillColor=#d5e8d4;strokeColor=#82b366;" vertex="1" parent="1">
          <mxGeometry x="610" y="100" width="60" height="30" as="geometry" />
        </mxCell>
        <mxCell id="t_XmNheDpT8PTCENix25-43" style="edgeStyle=none;shape=connector;rounded=0;orthogonalLoop=1;jettySize=auto;html=1;labelBackgroundColor=default;fontFamily=Helvetica;fontSize=10;fontColor=default;endArrow=none;strokeColor=default;" edge="1" parent="1" source="t_XmNheDpT8PTCENix25-41" target="t_XmNheDpT8PTCENix25-6">
          <mxGeometry relative="1" as="geometry" />
        </mxCell>
        <mxCell id="t_XmNheDpT8PTCENix25-41" value="Số&lt;br&gt;điện thoại" style="ellipse;whiteSpace=wrap;html=1;fontFamily=Helvetica;fontSize=10;fillColor=#d5e8d4;strokeColor=#82b366;" vertex="1" parent="1">
          <mxGeometry x="690" y="160" width="60" height="30" as="geometry" />
        </mxCell>
        <mxCell id="t_XmNheDpT8PTCENix25-44" style="edgeStyle=none;shape=connector;rounded=0;orthogonalLoop=1;jettySize=auto;html=1;entryX=1;entryY=0.25;entryDx=0;entryDy=0;labelBackgroundColor=default;fontFamily=Helvetica;fontSize=10;fontColor=default;endArrow=none;strokeColor=default;" edge="1" parent="1" source="t_XmNheDpT8PTCENix25-42" target="t_XmNheDpT8PTCENix25-6">
          <mxGeometry relative="1" as="geometry" />
        </mxCell>
        <mxCell id="t_XmNheDpT8PTCENix25-42" value="Số&lt;br&gt;fax" style="ellipse;whiteSpace=wrap;html=1;fontFamily=Helvetica;fontSize=10;fillColor=#d5e8d4;strokeColor=#82b366;" vertex="1" parent="1">
          <mxGeometry x="720" y="210" width="60" height="30" as="geometry" />
        </mxCell>
        <mxCell id="t_XmNheDpT8PTCENix25-56" style="edgeStyle=none;shape=connector;rounded=0;orthogonalLoop=1;jettySize=auto;html=1;entryX=0.5;entryY=1;entryDx=0;entryDy=0;labelBackgroundColor=default;fontFamily=Helvetica;fontSize=10;fontColor=default;endArrow=none;strokeColor=default;" edge="1" parent="1" source="t_XmNheDpT8PTCENix25-49" target="t_XmNheDpT8PTCENix25-5">
          <mxGeometry relative="1" as="geometry" />
        </mxCell>
        <mxCell id="t_XmNheDpT8PTCENix25-49" value="&lt;u&gt;Mã NV&lt;/u&gt;" style="ellipse;whiteSpace=wrap;html=1;fontFamily=Helvetica;fontSize=10;fillColor=#d5e8d4;strokeColor=#82b366;" vertex="1" parent="1">
          <mxGeometry x="420" y="584.5" width="60" height="30" as="geometry" />
        </mxCell>
        <mxCell id="t_XmNheDpT8PTCENix25-59" style="edgeStyle=none;shape=connector;rounded=0;orthogonalLoop=1;jettySize=auto;html=1;entryX=0.5;entryY=1;entryDx=0;entryDy=0;labelBackgroundColor=default;fontFamily=Helvetica;fontSize=10;fontColor=default;endArrow=none;strokeColor=default;" edge="1" parent="1" source="t_XmNheDpT8PTCENix25-50" target="t_XmNheDpT8PTCENix25-5">
          <mxGeometry relative="1" as="geometry" />
        </mxCell>
        <mxCell id="t_XmNheDpT8PTCENix25-50" value="Địa chỉ" style="ellipse;whiteSpace=wrap;html=1;fontFamily=Helvetica;fontSize=10;fillColor=#d5e8d4;strokeColor=#82b366;" vertex="1" parent="1">
          <mxGeometry x="560" y="585" width="60" height="30" as="geometry" />
        </mxCell>
        <mxCell id="t_XmNheDpT8PTCENix25-61" style="edgeStyle=none;shape=connector;rounded=0;orthogonalLoop=1;jettySize=auto;html=1;entryX=0.586;entryY=0.973;entryDx=0;entryDy=0;entryPerimeter=0;labelBackgroundColor=default;fontFamily=Helvetica;fontSize=10;fontColor=default;endArrow=none;strokeColor=default;" edge="1" parent="1" source="t_XmNheDpT8PTCENix25-51" target="t_XmNheDpT8PTCENix25-5">
          <mxGeometry relative="1" as="geometry" />
        </mxCell>
        <mxCell id="t_XmNheDpT8PTCENix25-51" value="Số&lt;br style=&quot;font-size: 9px;&quot;&gt;điện thoại" style="ellipse;whiteSpace=wrap;html=1;fontFamily=Helvetica;fontSize=9;fillColor=#d5e8d4;strokeColor=#82b366;" vertex="1" parent="1">
          <mxGeometry x="630" y="585" width="60" height="30" as="geometry" />
        </mxCell>
        <mxCell id="t_XmNheDpT8PTCENix25-58" style="edgeStyle=none;shape=connector;rounded=0;orthogonalLoop=1;jettySize=auto;html=1;entryX=0.5;entryY=1;entryDx=0;entryDy=0;labelBackgroundColor=default;fontFamily=Helvetica;fontSize=10;fontColor=default;endArrow=none;strokeColor=default;" edge="1" parent="1" source="t_XmNheDpT8PTCENix25-53" target="t_XmNheDpT8PTCENix25-5">
          <mxGeometry relative="1" as="geometry" />
        </mxCell>
        <mxCell id="t_XmNheDpT8PTCENix25-53" value="Họ tên" style="ellipse;whiteSpace=wrap;html=1;fontFamily=Helvetica;fontSize=10;fillColor=#d5e8d4;strokeColor=#82b366;" vertex="1" parent="1">
          <mxGeometry x="490" y="585" width="60" height="30" as="geometry" />
        </mxCell>
        <mxCell id="t_XmNheDpT8PTCENix25-62" style="edgeStyle=none;shape=connector;rounded=0;orthogonalLoop=1;jettySize=auto;html=1;labelBackgroundColor=default;fontFamily=Helvetica;fontSize=10;fontColor=default;endArrow=none;strokeColor=default;" edge="1" parent="1" source="t_XmNheDpT8PTCENix25-54" target="t_XmNheDpT8PTCENix25-5">
          <mxGeometry relative="1" as="geometry" />
        </mxCell>
        <mxCell id="t_XmNheDpT8PTCENix25-54" value="Giới tính" style="ellipse;whiteSpace=wrap;html=1;fontFamily=Helvetica;fontSize=10;fillColor=#d5e8d4;strokeColor=#82b366;" vertex="1" parent="1">
          <mxGeometry x="700" y="585" width="60" height="30" as="geometry" />
        </mxCell>
        <mxCell id="t_XmNheDpT8PTCENix25-63" style="edgeStyle=none;shape=connector;rounded=0;orthogonalLoop=1;jettySize=auto;html=1;entryX=1;entryY=0.5;entryDx=0;entryDy=0;labelBackgroundColor=default;fontFamily=Helvetica;fontSize=10;fontColor=default;endArrow=none;strokeColor=default;" edge="1" parent="1" source="t_XmNheDpT8PTCENix25-55" target="t_XmNheDpT8PTCENix25-5">
          <mxGeometry relative="1" as="geometry" />
        </mxCell>
        <mxCell id="t_XmNheDpT8PTCENix25-55" value="Ngày sinh" style="ellipse;whiteSpace=wrap;html=1;fontFamily=Helvetica;fontSize=10;fillColor=#d5e8d4;strokeColor=#82b366;" vertex="1" parent="1">
          <mxGeometry x="750" y="470" width="60" height="30" as="geometry" />
        </mxCell>
        <mxCell id="t_XmNheDpT8PTCENix25-64" style="edgeStyle=none;shape=connector;rounded=0;orthogonalLoop=1;jettySize=auto;html=1;labelBackgroundColor=default;fontFamily=Helvetica;fontSize=10;fontColor=default;endArrow=none;strokeColor=default;" edge="1" parent="1" source="t_XmNheDpT8PTCENix25-57" target="t_XmNheDpT8PTCENix25-5">
          <mxGeometry relative="1" as="geometry" />
        </mxCell>
        <mxCell id="t_XmNheDpT8PTCENix25-57" value="Lương" style="ellipse;whiteSpace=wrap;html=1;fontFamily=Helvetica;fontSize=10;fillColor=#d5e8d4;strokeColor=#82b366;" vertex="1" parent="1">
          <mxGeometry x="720" y="520" width="60" height="30" as="geometry" />
        </mxCell>
        <mxCell id="t_XmNheDpT8PTCENix25-67" style="edgeStyle=none;shape=connector;rounded=0;orthogonalLoop=1;jettySize=auto;html=1;entryX=0.5;entryY=0;entryDx=0;entryDy=0;labelBackgroundColor=default;fontFamily=Helvetica;fontSize=10;fontColor=default;endArrow=none;strokeColor=default;" edge="1" parent="1" source="t_XmNheDpT8PTCENix25-65" target="t_XmNheDpT8PTCENix25-5">
          <mxGeometry relative="1" as="geometry" />
        </mxCell>
        <mxCell id="t_XmNheDpT8PTCENix25-65" value="làm việc&lt;br&gt;tại" style="rhombus;whiteSpace=wrap;html=1;fontSize=10;fillColor=#fff2cc;strokeColor=#d6b656;" vertex="1" parent="1">
          <mxGeometry x="647" y="320" width="60" height="60" as="geometry" />
        </mxCell>
        <mxCell id="t_XmNheDpT8PTCENix25-69" value="&lt;u style=&quot;font-size: 9px;&quot;&gt;Mã Chủ nhà&lt;/u&gt;" style="ellipse;whiteSpace=wrap;html=1;fontFamily=Helvetica;fontSize=9;fillColor=#d5e8d4;strokeColor=#82b366;" vertex="1" parent="1">
          <mxGeometry x="40" y="584" width="60" height="30" as="geometry" />
        </mxCell>
        <mxCell id="t_XmNheDpT8PTCENix25-75" style="edgeStyle=none;shape=connector;rounded=0;orthogonalLoop=1;jettySize=auto;html=1;entryX=0.648;entryY=1.041;entryDx=0;entryDy=0;entryPerimeter=0;labelBackgroundColor=default;fontFamily=Helvetica;fontSize=10;fontColor=default;endArrow=none;strokeColor=default;" edge="1" parent="1" source="t_XmNheDpT8PTCENix25-70" target="t_XmNheDpT8PTCENix25-3">
          <mxGeometry relative="1" as="geometry" />
        </mxCell>
        <mxCell id="t_XmNheDpT8PTCENix25-70" value="Địa chỉ" style="ellipse;whiteSpace=wrap;html=1;fontFamily=Helvetica;fontSize=10;fillColor=#d5e8d4;strokeColor=#82b366;" vertex="1" parent="1">
          <mxGeometry x="180" y="584.5" width="60" height="30" as="geometry" />
        </mxCell>
        <mxCell id="t_XmNheDpT8PTCENix25-76" style="edgeStyle=none;shape=connector;rounded=0;orthogonalLoop=1;jettySize=auto;html=1;entryX=0.849;entryY=0.972;entryDx=0;entryDy=0;entryPerimeter=0;labelBackgroundColor=default;fontFamily=Helvetica;fontSize=10;fontColor=default;endArrow=none;strokeColor=default;" edge="1" parent="1" source="t_XmNheDpT8PTCENix25-71" target="t_XmNheDpT8PTCENix25-3">
          <mxGeometry relative="1" as="geometry" />
        </mxCell>
        <mxCell id="t_XmNheDpT8PTCENix25-71" value="Số&lt;br style=&quot;font-size: 9px;&quot;&gt;điện thoại" style="ellipse;whiteSpace=wrap;html=1;fontFamily=Helvetica;fontSize=9;fillColor=#d5e8d4;strokeColor=#82b366;" vertex="1" parent="1">
          <mxGeometry x="250" y="584.5" width="60" height="30" as="geometry" />
        </mxCell>
        <mxCell id="t_XmNheDpT8PTCENix25-72" value="Họ tên" style="ellipse;whiteSpace=wrap;html=1;fontFamily=Helvetica;fontSize=10;fillColor=#d5e8d4;strokeColor=#82b366;" vertex="1" parent="1">
          <mxGeometry x="110" y="584.5" width="60" height="30" as="geometry" />
        </mxCell>
        <mxCell id="t_XmNheDpT8PTCENix25-77" value="&lt;u&gt;Mã Nhà&lt;/u&gt;" style="ellipse;whiteSpace=wrap;html=1;fontFamily=Helvetica;fontSize=10;fillColor=#d5e8d4;strokeColor=#82b366;" vertex="1" parent="1">
          <mxGeometry x="213" y="430" width="60" height="30" as="geometry" />
        </mxCell>
        <mxCell id="t_XmNheDpT8PTCENix25-78" value="Thông tin&lt;br&gt;định vị" style="ellipse;whiteSpace=wrap;html=1;fontFamily=Helvetica;fontSize=10;fillColor=#d5e8d4;strokeColor=#82b366;" vertex="1" parent="1">
          <mxGeometry x="283" y="430" width="60" height="30" as="geometry" />
        </mxCell>
        <mxCell id="t_XmNheDpT8PTCENix25-90" style="edgeStyle=none;shape=connector;rounded=0;orthogonalLoop=1;jettySize=auto;html=1;labelBackgroundColor=default;fontFamily=Helvetica;fontSize=10;fontColor=default;endArrow=none;strokeColor=default;" edge="1" parent="1" source="t_XmNheDpT8PTCENix25-79">
          <mxGeometry relative="1" as="geometry">
            <mxPoint x="309.9999999999999" y="460" as="targetPoint" />
          </mxGeometry>
        </mxCell>
        <mxCell id="t_XmNheDpT8PTCENix25-79" value="Đường" style="ellipse;whiteSpace=wrap;html=1;fontFamily=Helvetica;fontSize=10;fillColor=#d5e8d4;strokeColor=#82b366;" vertex="1" parent="1">
          <mxGeometry x="260" y="490" width="60" height="30" as="geometry" />
        </mxCell>
        <mxCell id="t_XmNheDpT8PTCENix25-91" style="edgeStyle=none;shape=connector;rounded=0;orthogonalLoop=1;jettySize=auto;html=1;entryX=0.5;entryY=1;entryDx=0;entryDy=0;labelBackgroundColor=default;fontFamily=Helvetica;fontSize=10;fontColor=default;endArrow=none;strokeColor=default;" edge="1" parent="1" source="t_XmNheDpT8PTCENix25-80" target="t_XmNheDpT8PTCENix25-78">
          <mxGeometry relative="1" as="geometry" />
        </mxCell>
        <mxCell id="t_XmNheDpT8PTCENix25-80" value="Thành phố" style="ellipse;whiteSpace=wrap;html=1;fontFamily=Helvetica;fontSize=10;fillColor=#d5e8d4;strokeColor=#82b366;" vertex="1" parent="1">
          <mxGeometry x="330" y="490" width="60" height="30" as="geometry" />
        </mxCell>
        <mxCell id="t_XmNheDpT8PTCENix25-92" style="edgeStyle=none;shape=connector;rounded=0;orthogonalLoop=1;jettySize=auto;html=1;entryX=0.618;entryY=0.952;entryDx=0;entryDy=0;entryPerimeter=0;labelBackgroundColor=default;fontFamily=Helvetica;fontSize=10;fontColor=default;endArrow=none;strokeColor=default;" edge="1" parent="1" source="t_XmNheDpT8PTCENix25-81" target="t_XmNheDpT8PTCENix25-78">
          <mxGeometry relative="1" as="geometry" />
        </mxCell>
        <mxCell id="t_XmNheDpT8PTCENix25-81" value="Khu vực" style="ellipse;whiteSpace=wrap;html=1;fontFamily=Helvetica;fontSize=10;fillColor=#d5e8d4;strokeColor=#82b366;" vertex="1" parent="1">
          <mxGeometry x="397" y="490" width="60" height="30" as="geometry" />
        </mxCell>
        <mxCell id="t_XmNheDpT8PTCENix25-89" style="edgeStyle=none;shape=connector;rounded=0;orthogonalLoop=1;jettySize=auto;html=1;entryX=0.5;entryY=1;entryDx=0;entryDy=0;labelBackgroundColor=default;fontFamily=Helvetica;fontSize=10;fontColor=default;endArrow=none;strokeColor=default;" edge="1" parent="1" source="t_XmNheDpT8PTCENix25-82" target="t_XmNheDpT8PTCENix25-78">
          <mxGeometry relative="1" as="geometry" />
        </mxCell>
        <mxCell id="t_XmNheDpT8PTCENix25-82" value="Quận" style="ellipse;whiteSpace=wrap;html=1;fontFamily=Helvetica;fontSize=10;fillColor=#d5e8d4;strokeColor=#82b366;" vertex="1" parent="1">
          <mxGeometry x="190" y="490" width="60" height="30" as="geometry" />
        </mxCell>
        <mxCell id="t_XmNheDpT8PTCENix25-87" style="edgeStyle=none;shape=connector;rounded=0;orthogonalLoop=1;jettySize=auto;html=1;entryX=0.568;entryY=1.007;entryDx=0;entryDy=0;entryPerimeter=0;labelBackgroundColor=default;fontFamily=Helvetica;fontSize=10;fontColor=default;endArrow=none;strokeColor=default;" edge="1" parent="1" source="t_XmNheDpT8PTCENix25-85" target="t_XmNheDpT8PTCENix25-2">
          <mxGeometry relative="1" as="geometry" />
        </mxCell>
        <mxCell id="t_XmNheDpT8PTCENix25-85" value="Số phòng" style="ellipse;whiteSpace=wrap;html=1;fontFamily=Helvetica;fontSize=10;fillColor=#d5e8d4;strokeColor=#82b366;" vertex="1" parent="1">
          <mxGeometry x="354" y="430" width="60" height="30" as="geometry" />
        </mxCell>
        <mxCell id="t_XmNheDpT8PTCENix25-88" style="edgeStyle=none;shape=connector;rounded=0;orthogonalLoop=1;jettySize=auto;html=1;entryX=0.7;entryY=0.972;entryDx=0;entryDy=0;entryPerimeter=0;labelBackgroundColor=default;fontFamily=Helvetica;fontSize=10;fontColor=default;endArrow=none;strokeColor=default;" edge="1" parent="1" source="t_XmNheDpT8PTCENix25-86" target="t_XmNheDpT8PTCENix25-2">
          <mxGeometry relative="1" as="geometry" />
        </mxCell>
        <mxCell id="t_XmNheDpT8PTCENix25-86" value="&amp;nbsp;Tiền thuê&lt;br style=&quot;font-size: 9px;&quot;&gt;1 tháng" style="ellipse;whiteSpace=wrap;html=1;fontFamily=Helvetica;fontSize=9;fillColor=#d5e8d4;strokeColor=#82b366;" vertex="1" parent="1">
          <mxGeometry x="430" y="430" width="60" height="30" as="geometry" />
        </mxCell>
        <mxCell id="t_XmNheDpT8PTCENix25-100" style="edgeStyle=none;shape=connector;rounded=0;orthogonalLoop=1;jettySize=auto;html=1;labelBackgroundColor=default;fontFamily=Helvetica;fontSize=10;fontColor=default;endArrow=none;strokeColor=default;" edge="1" parent="1" source="t_XmNheDpT8PTCENix25-93" target="t_XmNheDpT8PTCENix25-1">
          <mxGeometry relative="1" as="geometry" />
        </mxCell>
        <mxCell id="t_XmNheDpT8PTCENix25-93" value="&lt;u&gt;Mã NT&lt;br&gt;&lt;/u&gt;" style="ellipse;whiteSpace=wrap;html=1;fontFamily=Helvetica;fontSize=10;fillColor=#d5e8d4;strokeColor=#82b366;" vertex="1" parent="1">
          <mxGeometry x="120" y="60" width="77" height="40" as="geometry" />
        </mxCell>
        <mxCell id="t_XmNheDpT8PTCENix25-102" style="edgeStyle=none;shape=connector;rounded=0;orthogonalLoop=1;jettySize=auto;html=1;entryX=0.5;entryY=0;entryDx=0;entryDy=0;labelBackgroundColor=default;fontFamily=Helvetica;fontSize=10;fontColor=default;endArrow=none;strokeColor=default;" edge="1" parent="1" source="t_XmNheDpT8PTCENix25-94" target="t_XmNheDpT8PTCENix25-1">
          <mxGeometry relative="1" as="geometry" />
        </mxCell>
        <mxCell id="t_XmNheDpT8PTCENix25-94" value="Thông tin&lt;br&gt;liên lạc" style="ellipse;whiteSpace=wrap;html=1;fontFamily=Helvetica;fontSize=10;fillColor=#d5e8d4;strokeColor=#82b366;" vertex="1" parent="1">
          <mxGeometry x="223" y="65" width="60" height="30" as="geometry" />
        </mxCell>
        <mxCell id="t_XmNheDpT8PTCENix25-104" style="edgeStyle=none;shape=connector;rounded=0;orthogonalLoop=1;jettySize=auto;html=1;labelBackgroundColor=default;fontFamily=Helvetica;fontSize=10;fontColor=default;endArrow=none;strokeColor=default;" edge="1" parent="1" source="t_XmNheDpT8PTCENix25-95" target="t_XmNheDpT8PTCENix25-94">
          <mxGeometry relative="1" as="geometry" />
        </mxCell>
        <mxCell id="t_XmNheDpT8PTCENix25-95" value="Tên" style="ellipse;whiteSpace=wrap;html=1;fontFamily=Helvetica;fontSize=10;fillColor=#d5e8d4;strokeColor=#82b366;" vertex="1" parent="1">
          <mxGeometry x="165" y="10" width="60" height="30" as="geometry" />
        </mxCell>
        <mxCell id="t_XmNheDpT8PTCENix25-106" style="edgeStyle=none;shape=connector;rounded=0;orthogonalLoop=1;jettySize=auto;html=1;labelBackgroundColor=default;fontFamily=Helvetica;fontSize=10;fontColor=default;endArrow=none;strokeColor=default;" edge="1" parent="1" source="t_XmNheDpT8PTCENix25-97" target="t_XmNheDpT8PTCENix25-94">
          <mxGeometry relative="1" as="geometry" />
        </mxCell>
        <mxCell id="t_XmNheDpT8PTCENix25-97" value="Số&lt;br&gt;điện thoại" style="ellipse;whiteSpace=wrap;html=1;fontFamily=Helvetica;fontSize=10;fillColor=#d5e8d4;strokeColor=#82b366;" vertex="1" parent="1">
          <mxGeometry x="305" y="10" width="60" height="30" as="geometry" />
        </mxCell>
        <mxCell id="t_XmNheDpT8PTCENix25-105" style="edgeStyle=none;shape=connector;rounded=0;orthogonalLoop=1;jettySize=auto;html=1;entryX=0.5;entryY=0;entryDx=0;entryDy=0;labelBackgroundColor=default;fontFamily=Helvetica;fontSize=10;fontColor=default;endArrow=none;strokeColor=default;" edge="1" parent="1" source="t_XmNheDpT8PTCENix25-98" target="t_XmNheDpT8PTCENix25-94">
          <mxGeometry relative="1" as="geometry" />
        </mxCell>
        <mxCell id="t_XmNheDpT8PTCENix25-98" value="&amp;nbsp;Địa chỉ" style="ellipse;whiteSpace=wrap;html=1;fontFamily=Helvetica;fontSize=10;fillColor=#d5e8d4;strokeColor=#82b366;" vertex="1" parent="1">
          <mxGeometry x="235" y="10" width="60" height="30" as="geometry" />
        </mxCell>
        <mxCell id="t_XmNheDpT8PTCENix25-103" style="edgeStyle=none;shape=connector;rounded=0;orthogonalLoop=1;jettySize=auto;html=1;entryX=0.662;entryY=0.032;entryDx=0;entryDy=0;entryPerimeter=0;labelBackgroundColor=default;fontFamily=Helvetica;fontSize=10;fontColor=default;endArrow=none;strokeColor=default;" edge="1" parent="1" source="t_XmNheDpT8PTCENix25-99" target="t_XmNheDpT8PTCENix25-1">
          <mxGeometry relative="1" as="geometry" />
        </mxCell>
        <mxCell id="t_XmNheDpT8PTCENix25-99" value="Khả năng&lt;br&gt;thuê" style="ellipse;whiteSpace=wrap;html=1;fontFamily=Helvetica;fontSize=10;fillColor=#d5e8d4;strokeColor=#82b366;" vertex="1" parent="1">
          <mxGeometry x="310" y="65" width="60" height="30" as="geometry" />
        </mxCell>
        <mxCell id="t_XmNheDpT8PTCENix25-109" style="edgeStyle=none;shape=connector;rounded=0;orthogonalLoop=1;jettySize=auto;html=1;labelBackgroundColor=default;fontFamily=Helvetica;fontSize=10;fontColor=default;endArrow=none;strokeColor=default;" edge="1" parent="1" source="t_XmNheDpT8PTCENix25-107" target="t_XmNheDpT8PTCENix25-4">
          <mxGeometry relative="1" as="geometry" />
        </mxCell>
        <mxCell id="t_XmNheDpT8PTCENix25-107" value="&lt;u&gt;Mã LN&lt;/u&gt;" style="ellipse;whiteSpace=wrap;html=1;fontFamily=Helvetica;fontSize=10;fillColor=#d5e8d4;strokeColor=#82b366;" vertex="1" parent="1">
          <mxGeometry x="10" y="320" width="70" height="30" as="geometry" />
        </mxCell>
        <mxCell id="t_XmNheDpT8PTCENix25-110" style="edgeStyle=none;shape=connector;rounded=0;orthogonalLoop=1;jettySize=auto;html=1;entryX=0.5;entryY=1;entryDx=0;entryDy=0;labelBackgroundColor=default;fontFamily=Helvetica;fontSize=10;fontColor=default;endArrow=none;strokeColor=default;" edge="1" parent="1" source="t_XmNheDpT8PTCENix25-108" target="t_XmNheDpT8PTCENix25-4">
          <mxGeometry relative="1" as="geometry" />
        </mxCell>
        <mxCell id="t_XmNheDpT8PTCENix25-108" value="Tên LN" style="ellipse;whiteSpace=wrap;html=1;fontFamily=Helvetica;fontSize=10;fillColor=#d5e8d4;strokeColor=#82b366;" vertex="1" parent="1">
          <mxGeometry x="90" y="320" width="60" height="30" as="geometry" />
        </mxCell>
        <mxCell id="t_XmNheDpT8PTCENix25-113" value="(1,n)" style="text;html=1;strokeColor=none;fillColor=none;align=center;verticalAlign=middle;whiteSpace=wrap;rounded=0;fontFamily=Helvetica;fontSize=10;fontColor=default;" vertex="1" parent="1">
          <mxGeometry x="600" y="260" width="36" height="20" as="geometry" />
        </mxCell>
        <mxCell id="t_XmNheDpT8PTCENix25-114" value="(1,1)" style="text;html=1;strokeColor=none;fillColor=none;align=center;verticalAlign=middle;whiteSpace=wrap;rounded=0;fontFamily=Helvetica;fontSize=10;fontColor=default;" vertex="1" parent="1">
          <mxGeometry x="632" y="410" width="36" height="20" as="geometry" />
        </mxCell>
        <mxCell id="t_XmNheDpT8PTCENix25-115" value="(1,n)" style="text;html=1;strokeColor=none;fillColor=none;align=center;verticalAlign=middle;whiteSpace=wrap;rounded=0;fontFamily=Helvetica;fontSize=10;fontColor=default;" vertex="1" parent="1">
          <mxGeometry x="454" y="240" width="36" height="20" as="geometry" />
        </mxCell>
        <mxCell id="t_XmNheDpT8PTCENix25-116" value="(1,1)" style="text;html=1;strokeColor=none;fillColor=none;align=center;verticalAlign=middle;whiteSpace=wrap;rounded=0;fontFamily=Helvetica;fontSize=10;fontColor=default;" vertex="1" parent="1">
          <mxGeometry x="378" y="330" width="36" height="20" as="geometry" />
        </mxCell>
        <mxCell id="t_XmNheDpT8PTCENix25-117" value="(1,n)" style="text;html=1;strokeColor=none;fillColor=none;align=center;verticalAlign=middle;whiteSpace=wrap;rounded=0;fontFamily=Helvetica;fontSize=10;fontColor=default;" vertex="1" parent="1">
          <mxGeometry x="80" y="465" width="36" height="20" as="geometry" />
        </mxCell>
        <mxCell id="t_XmNheDpT8PTCENix25-118" value="(1,1)" style="text;html=1;strokeColor=none;fillColor=none;align=center;verticalAlign=middle;whiteSpace=wrap;rounded=0;fontFamily=Helvetica;fontSize=10;fontColor=default;" vertex="1" parent="1">
          <mxGeometry x="240" y="366" width="36" height="20" as="geometry" />
        </mxCell>
        <mxCell id="t_XmNheDpT8PTCENix25-119" value="(1,n)" style="text;html=1;strokeColor=none;fillColor=none;align=center;verticalAlign=middle;whiteSpace=wrap;rounded=0;fontFamily=Helvetica;fontSize=10;fontColor=default;" vertex="1" parent="1">
          <mxGeometry x="144" y="250" width="36" height="20" as="geometry" />
        </mxCell>
        <mxCell id="t_XmNheDpT8PTCENix25-121" value="(1,1)" style="text;html=1;strokeColor=none;fillColor=none;align=center;verticalAlign=middle;whiteSpace=wrap;rounded=0;fontFamily=Helvetica;fontSize=10;fontColor=default;" vertex="1" parent="1">
          <mxGeometry x="262" y="325" width="36" height="20" as="geometry" />
        </mxCell>
        <mxCell id="t_XmNheDpT8PTCENix25-123" value="(1,n)" style="text;html=1;strokeColor=none;fillColor=none;align=center;verticalAlign=middle;whiteSpace=wrap;rounded=0;fontFamily=Helvetica;fontSize=10;fontColor=default;" vertex="1" parent="1">
          <mxGeometry x="240" y="170" width="36" height="20" as="geometry" />
        </mxCell>
        <mxCell id="t_XmNheDpT8PTCENix25-124" value="(1,n)" style="text;html=1;strokeColor=none;fillColor=none;align=center;verticalAlign=middle;whiteSpace=wrap;rounded=0;fontFamily=Helvetica;fontSize=10;fontColor=default;" vertex="1" parent="1">
          <mxGeometry x="322" y="320" width="36" height="20" as="geometry" />
        </mxCell>
        <mxCell id="t_XmNheDpT8PTCENix25-125" value="&lt;span&gt;Ngày xem&lt;/span&gt;" style="ellipse;whiteSpace=wrap;html=1;fontFamily=Helvetica;fontSize=10;fontStyle=0;fillColor=#d5e8d4;strokeColor=#82b366;" vertex="1" parent="1">
          <mxGeometry x="320" y="180" width="60" height="30" as="geometry" />
        </mxCell>
        <mxCell id="t_XmNheDpT8PTCENix25-128" value="Nhận xét" style="ellipse;whiteSpace=wrap;html=1;fontFamily=Helvetica;fontSize=10;fillColor=#d5e8d4;strokeColor=#82b366;" vertex="1" parent="1">
          <mxGeometry x="343" y="220" width="60" height="30" as="geometry" />
        </mxCell>
        <mxCell id="t_XmNheDpT8PTCENix25-130" value="(1,1)" style="text;html=1;strokeColor=none;fillColor=none;align=center;verticalAlign=middle;whiteSpace=wrap;rounded=0;fontFamily=Helvetica;fontSize=10;fontColor=default;" vertex="1" parent="1">
          <mxGeometry x="177" y="130" width="36" height="20" as="geometry" />
        </mxCell>
        <mxCell id="t_XmNheDpT8PTCENix25-131" value="(1,n)" style="text;html=1;strokeColor=none;fillColor=none;align=center;verticalAlign=middle;whiteSpace=wrap;rounded=0;fontFamily=Helvetica;fontSize=10;fontColor=default;" vertex="1" parent="1">
          <mxGeometry x="77" y="220" width="36" height="20" as="geometry" />
        </mxCell>
        <mxCell id="t_XmNheDpT8PTCENix25-133" value="(1,n)" style="text;html=1;strokeColor=none;fillColor=none;align=center;verticalAlign=middle;whiteSpace=wrap;rounded=0;fontFamily=Helvetica;fontSize=10;fontColor=default;" vertex="1" parent="1">
          <mxGeometry x="514" y="200" width="36" height="20" as="geometry" />
        </mxCell>
        <mxCell id="t_XmNheDpT8PTCENix25-134" value="(1,1)" style="text;html=1;strokeColor=none;fillColor=none;align=center;verticalAlign=middle;whiteSpace=wrap;rounded=0;fontFamily=Helvetica;fontSize=10;fontColor=default;" vertex="1" parent="1">
          <mxGeometry x="327" y="130" width="36" height="20" as="geometry" />
        </mxCell>
        <mxCell id="t_XmNheDpT8PTCENix25-135" value="(1,1)" style="text;html=1;strokeColor=none;fillColor=none;align=center;verticalAlign=middle;whiteSpace=wrap;rounded=0;fontFamily=Helvetica;fontSize=10;fontColor=default;" vertex="1" parent="1">
          <mxGeometry x="397" y="360" width="36" height="20" as="geometry" />
        </mxCell>
        <mxCell id="t_XmNheDpT8PTCENix25-136" value="(1,n)" style="text;html=1;strokeColor=none;fillColor=none;align=center;verticalAlign=middle;whiteSpace=wrap;rounded=0;fontFamily=Helvetica;fontSize=10;fontColor=default;" vertex="1" parent="1">
          <mxGeometry x="562" y="435" width="36" height="20" as="geometry" />
        </mxCell>
        <mxCell id="t_XmNheDpT8PTCENix25-157" value="Người thuê (&lt;u&gt;Mã người thuê&lt;/u&gt;, tên, địa chỉ, số điện thoại, khả năng thuê, Mã CN, Mã Loại nhà" style="text;html=1;align=left;verticalAlign=middle;resizable=0;points=[];autosize=1;strokeColor=none;fillColor=none;" vertex="1" parent="1">
          <mxGeometry x="70" y="710" width="510" height="30" as="geometry" />
        </mxCell>
        <mxCell id="t_XmNheDpT8PTCENix25-158" value="Chi nhánh (&lt;u&gt;Mã CN&lt;/u&gt;, Đường, Quận, Khu vực, Thành phố, Số điện thoại, Số fax)" style="text;html=1;align=left;verticalAlign=middle;resizable=0;points=[];autosize=1;strokeColor=none;fillColor=none;" vertex="1" parent="1">
          <mxGeometry x="70" y="760" width="440" height="30" as="geometry" />
        </mxCell>
        <mxCell id="t_XmNheDpT8PTCENix25-159" value="Nhân viên (&lt;u&gt;Mã NV&lt;/u&gt;, Họ tên, Địa chỉ, Số điện thoại, Giới tính, ngày sinh, lương, Mã CN)" style="text;html=1;align=left;verticalAlign=middle;resizable=0;points=[];autosize=1;strokeColor=none;fillColor=none;" vertex="1" parent="1">
          <mxGeometry x="60" y="810" width="480" height="30" as="geometry" />
        </mxCell>
        <mxCell id="t_XmNheDpT8PTCENix25-160" value="Nhà (&lt;u&gt;Mã nhà&lt;/u&gt;, Quận, Đường, Thành phố, Khu vực, Số phòng, Tiền thuê 1 tháng, Mã loại nhà, Mã NV, Mã CN)" style="text;html=1;align=left;verticalAlign=middle;resizable=0;points=[];autosize=1;strokeColor=none;fillColor=none;" vertex="1" parent="1">
          <mxGeometry x="60" y="860" width="610" height="30" as="geometry" />
        </mxCell>
        <mxCell id="t_XmNheDpT8PTCENix25-161" value="Chủ nhà (&lt;u&gt;Mã chủ nhà&lt;/u&gt;, họ tên, Địa chỉ, số điện thoại, Mã nhà)" style="text;html=1;align=left;verticalAlign=middle;resizable=0;points=[];autosize=1;strokeColor=none;fillColor=none;" vertex="1" parent="1">
          <mxGeometry x="60" y="950" width="350" height="30" as="geometry" />
        </mxCell>
        <mxCell id="t_XmNheDpT8PTCENix25-162" value="Loại nhà (&lt;u&gt;Mã loại nhà,&lt;/u&gt; Tên loại nhà)" style="text;html=1;align=left;verticalAlign=middle;resizable=0;points=[];autosize=1;strokeColor=none;fillColor=none;" vertex="1" parent="1">
          <mxGeometry x="60" y="910" width="220" height="30" as="geometry" />
        </mxCell>
        <mxCell id="t_XmNheDpT8PTCENix25-163" value="" style="endArrow=none;dashed=1;html=1;dashPattern=1 3;strokeWidth=2;rounded=0;entryX=0.942;entryY=0.333;entryDx=0;entryDy=0;entryPerimeter=0;" edge="1" parent="1">
          <mxGeometry width="50" height="50" relative="1" as="geometry">
            <mxPoint x="494" y="868" as="sourcePoint" />
            <mxPoint x="553.8400000000001" y="867.9900000000001" as="targetPoint" />
          </mxGeometry>
        </mxCell>
        <mxCell id="t_XmNheDpT8PTCENix25-164" value="" style="endArrow=classic;html=1;rounded=0;entryX=0.909;entryY=0.667;entryDx=0;entryDy=0;entryPerimeter=0;exitX=0.755;exitY=1.033;exitDx=0;exitDy=0;exitPerimeter=0;" edge="1" parent="1" target="t_XmNheDpT8PTCENix25-162" source="t_XmNheDpT8PTCENix25-160">
          <mxGeometry width="50" height="50" relative="1" as="geometry">
            <mxPoint x="540" y="870" as="sourcePoint" />
            <mxPoint x="620" y="810" as="targetPoint" />
            <Array as="points">
              <mxPoint x="470" y="910" />
            </Array>
          </mxGeometry>
        </mxCell>
        <mxCell id="t_XmNheDpT8PTCENix25-165" value="" style="endArrow=none;dashed=1;html=1;dashPattern=1 3;strokeWidth=2;rounded=0;entryX=0.966;entryY=0.333;entryDx=0;entryDy=0;entryPerimeter=0;" edge="1" parent="1">
          <mxGeometry width="50" height="50" relative="1" as="geometry">
            <mxPoint x="450" y="715.01" as="sourcePoint" />
            <mxPoint x="485.03999999999974" y="714.9999999999999" as="targetPoint" />
          </mxGeometry>
        </mxCell>
        <mxCell id="t_XmNheDpT8PTCENix25-166" value="" style="endArrow=classic;html=1;rounded=0;entryX=0.213;entryY=0.333;entryDx=0;entryDy=0;entryPerimeter=0;" edge="1" parent="1" target="t_XmNheDpT8PTCENix25-158">
          <mxGeometry width="50" height="50" relative="1" as="geometry">
            <mxPoint x="470" y="710" as="sourcePoint" />
            <mxPoint x="470" y="870" as="targetPoint" />
            <Array as="points" />
          </mxGeometry>
        </mxCell>
        <mxCell id="t_XmNheDpT8PTCENix25-167" value="" style="endArrow=none;dashed=1;html=1;dashPattern=1 3;strokeWidth=2;rounded=0;entryX=0.977;entryY=0.167;entryDx=0;entryDy=0;entryPerimeter=0;" edge="1" parent="1">
          <mxGeometry width="50" height="50" relative="1" as="geometry">
            <mxPoint x="497" y="715" as="sourcePoint" />
            <mxPoint x="558.27" y="715.01" as="targetPoint" />
          </mxGeometry>
        </mxCell>
        <mxCell id="t_XmNheDpT8PTCENix25-168" value="" style="endArrow=classic;html=1;rounded=0;entryX=0.864;entryY=0.5;entryDx=0;entryDy=0;entryPerimeter=0;" edge="1" parent="1" target="t_XmNheDpT8PTCENix25-162">
          <mxGeometry width="50" height="50" relative="1" as="geometry">
            <mxPoint x="550" y="720" as="sourcePoint" />
            <mxPoint x="180.1099999999999" y="779.99" as="targetPoint" />
            <Array as="points" />
          </mxGeometry>
        </mxCell>
        <mxCell id="t_XmNheDpT8PTCENix25-169" value="Lịch sử xem nhà (&lt;u&gt;Mã người thuê, Mã nhà&lt;/u&gt;, ngày xem nhà, nhận xét)" style="text;html=1;align=left;verticalAlign=middle;resizable=0;points=[];autosize=1;strokeColor=none;fillColor=none;" vertex="1" parent="1">
          <mxGeometry x="60" y="990" width="380" height="30" as="geometry" />
        </mxCell>
        <mxCell id="t_XmNheDpT8PTCENix25-170" value="" style="endArrow=none;dashed=1;html=1;dashPattern=1 3;strokeWidth=2;rounded=0;exitX=0.263;exitY=0.333;exitDx=0;exitDy=0;exitPerimeter=0;entryX=0.447;entryY=0.333;entryDx=0;entryDy=0;entryPerimeter=0;" edge="1" parent="1">
          <mxGeometry width="50" height="50" relative="1" as="geometry">
            <mxPoint x="159.94000000000005" y="996.99" as="sourcePoint" />
            <mxPoint x="229.86000000000013" y="996.99" as="targetPoint" />
          </mxGeometry>
        </mxCell>
        <mxCell id="t_XmNheDpT8PTCENix25-171" value="" style="endArrow=classic;html=1;rounded=0;entryX=0.235;entryY=0.667;entryDx=0;entryDy=0;entryPerimeter=0;" edge="1" parent="1" target="t_XmNheDpT8PTCENix25-157">
          <mxGeometry width="50" height="50" relative="1" as="geometry">
            <mxPoint x="190" y="1000" as="sourcePoint" />
            <mxPoint x="470" y="910" as="targetPoint" />
            <Array as="points">
              <mxPoint x="40" y="860" />
            </Array>
          </mxGeometry>
        </mxCell>
        <mxCell id="t_XmNheDpT8PTCENix25-172" value="" style="endArrow=none;dashed=1;html=1;dashPattern=1 3;strokeWidth=2;rounded=0;exitX=0.263;exitY=0.333;exitDx=0;exitDy=0;exitPerimeter=0;" edge="1" parent="1">
          <mxGeometry width="50" height="50" relative="1" as="geometry">
            <mxPoint x="241" y="996" as="sourcePoint" />
            <mxPoint x="280" y="996" as="targetPoint" />
          </mxGeometry>
        </mxCell>
        <mxCell id="t_XmNheDpT8PTCENix25-173" value="" style="endArrow=classic;html=1;rounded=0;entryX=0.096;entryY=0.667;entryDx=0;entryDy=0;entryPerimeter=0;" edge="1" parent="1" target="t_XmNheDpT8PTCENix25-160">
          <mxGeometry width="50" height="50" relative="1" as="geometry">
            <mxPoint x="260" y="990" as="sourcePoint" />
            <mxPoint x="470" y="910" as="targetPoint" />
          </mxGeometry>
        </mxCell>
        <mxCell id="t_XmNheDpT8PTCENix25-174" value="" style="endArrow=none;dashed=1;html=1;dashPattern=1 3;strokeWidth=2;rounded=0;exitX=0.875;exitY=0.333;exitDx=0;exitDy=0;exitPerimeter=0;entryX=0.958;entryY=0.333;entryDx=0;entryDy=0;entryPerimeter=0;" edge="1" parent="1">
          <mxGeometry width="50" height="50" relative="1" as="geometry">
            <mxPoint x="478" y="815.99" as="sourcePoint" />
            <mxPoint x="517.8399999999999" y="815.99" as="targetPoint" />
          </mxGeometry>
        </mxCell>
        <mxCell id="t_XmNheDpT8PTCENix25-175" value="" style="endArrow=classic;html=1;rounded=0;entryX=0.255;entryY=0.667;entryDx=0;entryDy=0;entryPerimeter=0;" edge="1" parent="1" target="t_XmNheDpT8PTCENix25-158">
          <mxGeometry width="50" height="50" relative="1" as="geometry">
            <mxPoint x="500" y="810" as="sourcePoint" />
            <mxPoint x="470" y="910" as="targetPoint" />
          </mxGeometry>
        </mxCell>
        <mxCell id="t_XmNheDpT8PTCENix25-176" value="" style="endArrow=none;dashed=1;html=1;dashPattern=1 3;strokeWidth=2;rounded=0;" edge="1" parent="1">
          <mxGeometry width="50" height="50" relative="1" as="geometry">
            <mxPoint x="563" y="867.01" as="sourcePoint" />
            <mxPoint x="600" y="867" as="targetPoint" />
          </mxGeometry>
        </mxCell>
        <mxCell id="t_XmNheDpT8PTCENix25-177" value="" style="endArrow=classic;html=1;rounded=0;entryX=0.188;entryY=0.667;entryDx=0;entryDy=0;entryPerimeter=0;exitX=0.837;exitY=0.033;exitDx=0;exitDy=0;exitPerimeter=0;" edge="1" parent="1" target="t_XmNheDpT8PTCENix25-159" source="t_XmNheDpT8PTCENix25-160">
          <mxGeometry width="50" height="50" relative="1" as="geometry">
            <mxPoint x="530" y="860" as="sourcePoint" />
            <mxPoint x="470" y="910" as="targetPoint" />
          </mxGeometry>
        </mxCell>
        <mxCell id="t_XmNheDpT8PTCENix25-178" value="" style="endArrow=none;dashed=1;html=1;dashPattern=1 3;strokeWidth=2;rounded=0;exitX=0.823;exitY=0.1;exitDx=0;exitDy=0;exitPerimeter=0;entryX=0.943;entryY=0.117;entryDx=0;entryDy=0;entryPerimeter=0;" edge="1" parent="1">
          <mxGeometry width="50" height="50" relative="1" as="geometry">
            <mxPoint x="343.04999999999995" y="958" as="sourcePoint" />
            <mxPoint x="385.04999999999995" y="958.51" as="targetPoint" />
          </mxGeometry>
        </mxCell>
        <mxCell id="t_XmNheDpT8PTCENix25-179" value="" style="endArrow=classic;html=1;rounded=0;" edge="1" parent="1">
          <mxGeometry width="50" height="50" relative="1" as="geometry">
            <mxPoint x="360" y="960" as="sourcePoint" />
            <mxPoint x="120" y="880" as="targetPoint" />
          </mxGeometry>
        </mxCell>
        <mxCell id="t_XmNheDpT8PTCENix25-180" value="" style="endArrow=none;dashed=1;html=1;dashPattern=1 3;strokeWidth=2;rounded=0;entryX=0.959;entryY=0.2;entryDx=0;entryDy=0;entryPerimeter=0;exitX=0.857;exitY=0.183;exitDx=0;exitDy=0;exitPerimeter=0;" edge="1" parent="1" source="t_XmNheDpT8PTCENix25-160" target="t_XmNheDpT8PTCENix25-160">
          <mxGeometry width="50" height="50" relative="1" as="geometry">
            <mxPoint x="573" y="877.01" as="sourcePoint" />
            <mxPoint x="610" y="877" as="targetPoint" />
          </mxGeometry>
        </mxCell>
        <mxCell id="t_XmNheDpT8PTCENix25-181" value="" style="endArrow=classic;html=1;rounded=0;" edge="1" parent="1">
          <mxGeometry width="50" height="50" relative="1" as="geometry">
            <mxPoint x="620" y="860" as="sourcePoint" />
            <mxPoint x="150" y="780" as="targetPoint" />
          </mxGeometry>
        </mxCell>
      </root>
    </mxGraphModel>
  </diagram>
</mxfile>
